<svg width="22" height="22" viewBox="0 0 22 22" fill="none" xmlns="http://www.w3.org/2000/svg">
<path fill-rule="evenodd" clip-rule="evenodd" d="M17.8207 12.992C17.5379 12.8761 17.2352 12.8165 16.9297 12.8165C16.6441 12.8002 16.3587 12.8522 16.0972 12.968C15.8709 13.0772 15.655 13.2067 15.4522 13.355C15.2548 13.4983 15.0741 13.6633 14.9137 13.847C14.7577 14.027 14.6062 14.192 14.4577 14.3405C14.3228 14.4768 14.1774 14.6022 14.0227 14.7155C13.8665 14.8274 13.6752 14.8794 13.4838 14.8621C13.2925 14.8448 13.1137 14.7592 12.9802 14.621C12.8151 14.4662 12.6511 14.3102 12.4882 14.153C12.2782 13.949 12.0202 13.703 11.7157 13.4135C11.397 13.1113 11.0805 12.8067 10.7662 12.5L9.74616 11.504C9.11989 10.8917 8.51454 10.2583 7.93116 9.605C7.72165 9.37467 7.52581 9.13225 7.34466 8.879C7.20366 8.6765 7.13316 8.528 7.13316 8.4335C7.12445 8.26419 7.17838 8.09759 7.28466 7.9655C7.39416 7.8245 7.52466 7.6805 7.67166 7.5305C7.82166 7.3835 7.98516 7.226 8.16366 7.0625C8.34366 6.8975 8.50867 6.722 8.65716 6.5345C8.80416 6.347 8.93016 6.1325 9.03216 5.8895C9.13266 5.6495 9.18366 5.375 9.18366 5.0705C9.18365 4.45152 8.93948 3.85754 8.50416 3.4175C8.22392 3.1424 7.95806 2.85302 7.70766 2.5505C7.42148 2.20971 7.11225 1.88896 6.78216 1.5905C6.46173 1.29726 6.11188 1.03788 5.73816 0.8165C5.39876 0.611043 5.00991 0.501647 4.61316 0.5C3.99471 0.500411 3.40133 0.744551 2.96166 1.1795C2.55516 1.586 2.19966 1.949 1.89516 2.27C1.60294 2.57393 1.34351 2.90777 1.12116 3.266C0.905685 3.62146 0.747737 4.00873 0.653164 4.4135C0.543057 4.91382 0.49171 5.42528 0.500164 5.9375C0.500164 6.7655 0.633665 7.625 0.899164 8.516C1.16466 9.4055 1.52316 10.2935 1.97616 11.1755C2.42916 12.059 2.98116 12.926 3.62916 13.778C4.27716 14.6285 4.98066 15.437 5.73816 16.2035C6.49566 16.9685 7.30116 17.6765 8.15316 18.3245C9.00366 18.9725 9.87516 19.532 10.7662 20C11.6557 20.4695 12.5512 20.8355 13.4497 21.101C14.3009 21.3597 15.185 21.4941 16.0747 21.5C16.5831 21.4997 17.0901 21.4444 17.5867 21.335C17.9959 21.2426 18.3875 21.0846 18.7462 20.867C19.0912 20.657 19.4212 20.399 19.7422 20.0945C20.0632 19.7885 20.4217 19.4375 20.8207 19.0385C21.2558 18.5984 21.5 18.0044 21.5002 17.3855C21.4832 17.1224 21.4317 16.8627 21.3472 16.613C21.2594 16.3515 21.1292 16.1062 20.9617 15.887C20.7866 15.6572 20.6025 15.4346 20.4097 15.2195C20.211 14.997 20.0002 14.7857 19.7782 14.5865C19.5638 14.3943 19.3488 14.2028 19.1332 14.012C18.9445 13.8456 18.7609 13.6735 18.5827 13.496C18.3654 13.2782 18.1061 13.1067 17.8207 12.992ZM17.2702 19.871C16.8788 19.9651 16.477 20.0084 16.0747 20C15.3035 19.9854 14.5381 19.8632 13.8007 19.637C12.9755 19.3876 12.1783 19.0539 11.4217 18.641C9.73939 17.7198 8.19982 16.5592 6.85116 15.1955C6.16566 14.5022 5.52012 13.7705 4.91766 13.004C4.33278 12.2629 3.81569 11.4707 3.37266 10.637C2.95975 9.86612 2.6217 9.05742 2.36316 8.222C2.12826 7.47118 2.00593 6.68969 2.00016 5.903C1.99979 5.50379 2.04712 5.10597 2.14116 4.718C2.22666 4.391 2.35566 4.097 2.52816 3.8405C2.69916 3.5825 2.91066 3.332 3.15966 3.0905C3.41016 2.8475 3.69516 2.5655 4.01466 2.246C4.09244 2.16602 4.18585 2.10291 4.28908 2.06059C4.3923 2.01827 4.50313 1.99764 4.61466 2C4.70766 1.9925 4.85166 2.054 5.04666 2.1875C5.24166 2.321 5.45316 2.48 5.67966 2.6675C6.16882 3.07552 6.62015 3.52685 7.02816 4.016C7.21566 4.241 7.37166 4.4495 7.49616 4.637C7.62066 4.8245 7.68366 4.9685 7.68366 5.0705C7.69714 5.24041 7.64265 5.40872 7.53216 5.5385C7.42266 5.6645 7.29216 5.8085 7.14516 5.9735C6.99516 6.137 6.83167 6.293 6.65316 6.4415C6.47317 6.59 6.30816 6.7655 6.15966 6.968C6.01061 7.17236 5.88483 7.39273 5.78466 7.625C5.67897 7.8817 5.6274 8.15745 5.63316 8.435C5.64066 8.7545 5.70366 9.0545 5.82066 9.335C5.93766 9.617 6.10566 9.8675 6.32466 10.085L11.9137 15.6755C12.1287 15.8957 12.3859 16.0702 12.6699 16.1888C12.9539 16.3073 13.2589 16.3674 13.5667 16.3655C13.8481 16.3804 14.1292 16.3291 14.3872 16.2155C14.8378 16.0068 15.2406 15.7076 15.5707 15.3365C15.7357 15.1565 15.8857 14.9915 16.0282 14.843C16.1677 14.696 16.3132 14.57 16.4617 14.468C16.5984 14.3707 16.7618 14.3178 16.9297 14.3165C17.0392 14.3165 17.1877 14.3795 17.3752 14.504C17.5627 14.6285 17.7697 14.789 17.9962 14.984C18.2227 15.179 18.4567 15.395 18.6997 15.629C18.9412 15.863 19.1572 16.097 19.3447 16.3325C19.5307 16.5665 19.6882 16.778 19.8127 16.9655C19.9372 17.153 20.0002 17.2955 20.0002 17.399C20.0013 17.5081 19.98 17.6163 19.9377 17.717C19.8954 17.8176 19.8329 17.9084 19.7542 17.984C19.4182 18.3125 19.1332 18.599 18.8992 18.839C18.6717 19.0754 18.4204 19.2875 18.1492 19.472C17.8806 19.6533 17.5834 19.7881 17.2702 19.871ZM21.5002 1.556L14.5402 8.528H19.4722V10.028H11.9722V2.528H13.4722V7.46L20.4457 0.5L21.5002 1.5545V1.556Z" fill="white"/>
</svg>
